<svg class="brand-logo" xmlns="http://www.w3.org/2000/svg" role="img" aria-label="OmniForge" viewBox="0 0 1832.012 468"><defs><linearGradient id="markGrad" gradientUnits="objectBoundingBox" x1="0" y1="0" x2="0" y2="1"><stop offset="0%" stop-color="#61e2a2"/><stop offset="32%" stop-color="#0f766e"/><stop offset="100%" stop-color="#0a0a0a"/></linearGradient></defs><g transform="translate(24 24) scale(0.8457374830852503 0.8457374830852503)"><svg x="0" y="0" width="506.318" height="496.608" viewBox="0 0 506.318 496.608" overflow="visible"><g fill="url(#markGrad)" stroke="url(#markGrad)" color="url(#markGrad)"><defs xmlns="http://www.w3.org/2000/svg">
    <linearGradient id="imp-mroojynp-imp-mromppdi-markGrad" gradientUnits="objectBoundingBox" x1="0" y1="0" x2="0" y2="1">
      <stop offset="0" stop-color="#61e2a2"/>
      <stop offset="0.5" stop-color="#0f766e"/>
      <stop offset="1" stop-color="#0a0a0a"/>
    </linearGradient>
    <linearGradient gradientUnits="userSpaceOnUse" x1="253.267" y1="132.127" x2="253.267" y2="302.646" id="imp-mroojynp-gradient-0" gradientTransform="matrix(-0.301691, 0.953405, -1.872951, -0.592671, 817.012348, 174.830245)">
      <stop offset="0" style="stop-color: rgb(97, 226, 162)"/>
      <stop offset="1" style="stop-color: rgb(15, 118, 110)"/>
    </linearGradient>
    <bx:export xmlns:bx="https://boxy-svg.com">
      <bx:file format="svg"/>
    </bx:export>
  </defs><g xmlns="http://www.w3.org/2000/svg" transform="translate(24 24) scale(1 1)">
    <svg x="0" y="0" width="458.3179" height="448.608" viewBox="53.4337 -45.988 458.3179 448.608" overflow="visible">
      <g color="url(#imp-mroojynp-imp-mromppdi-markGrad)">
        <g transform="matrix(1, 0, 0, 1, -358.53540039062506, -278.6579284667969)">
          <g transform="translate(635.514 455.59)scale(1.65697)"/>
          <g transform="translate(641.128 456.974)scale(1.65697)">
            <path d="M 609.5 482.58 L 609.5 481.9 C 609.49 474.34 613.56 467.37 620.24 463.84 L 638.3 454.27 L 628.32 423.56 L 608.22 426.43 C 600.81 427.48 593.4 424.37 589.04 418.28 C 588.82 417.98 588.59 417.67 588.37 417.36 C 583.96 411.34 583.29 403.35 586.58 396.64 L 595.57 378.28 L 569.45 359.3 L 554.88 373.42 C 549.5 378.64 541.67 380.46 534.55 378.1 C 534.19 377.98 533.82 377.85 533.45 377.74 C 526.35 375.46 521.13 369.38 519.85 362.03 L 516.34 341.92 L 484.05 341.92 L 480.56 361.9 C 479.28 369.28 474.02 375.37 466.89 377.63 C 466.51 377.75 466.14 377.87 465.78 377.99 C 458.68 380.32 450.89 378.48 445.53 373.28 L 430.87 359.08 L 404.74 378.06 L 413.68 396.29 C 416.97 403.02 416.29 411.04 411.84 417.08 C 411.61 417.38 411.39 417.69 411.16 418 C 406.8 424.04 399.41 427.13 392.03 426.08 L 371.8 423.2 L 361.82 453.91 L 379.76 463.4 C 386.44 466.94 390.53 473.92 390.49 481.48 L 390.49 482.16 C 390.5 489.72 386.44 496.69 379.76 500.23 L 361.7 509.79 L 371.68 540.5 L 391.78 537.64 C 399.19 536.58 406.6 539.69 410.96 545.78 C 411.18 546.09 411.41 546.4 411.63 546.7 C 416.05 552.73 416.71 560.72 413.42 567.42 L 404.43 585.78 L 424.12 600.09 C 424.97 599.49 425.8 598.88 426.62 598.26 C 438.2 589.49 443.19 575.21 444.14 558.83 C 444.56 551.61 439.34 533.49 433.29 522.48 C 432.98 521.93 432.75 521.48 432.57 521.11 C 424.65 508.62 420.06 493.81 420.06 477.93 C 420.06 433.35 456.21 397.21 500.78 397.21 C 503.58 397.21 506.38 397.35 509.17 397.64 C 541.88 401.02 575.61 426.79 576.66 461.76 C 576.87 468.84 575.66 475.91 573.23 482.56 C 570.78 489.25 567.23 492.023 569.72 499.26 C 571.21 503.59 579.65 518.774 579.58 521.069 C 578.877 525.478 568.55 529.3 568.55 529.3 C 568.55 529.3 567.975 535.941 567.285 539.852 C 564.428 547.316 565.53 546.398 564.549 547.789 C 561.527 552.075 559.403 555.963 557.36 558.97 C 552.857 565.598 554.18 575.049 544.6 576.725 C 539.387 577.637 534.12 576.869 529.083 575.497 C 517.92 572.456 514.364 571.023 509.883 569.765 C 507.437 569.078 512.18 600.67 516.21 609.72 C 516.651 610.71 517.12 611.69 517.61 612.66 L 519.44 602.16 C 520.73 594.78 525.98 588.69 533.12 586.43 L 534.23 586.07 C 541.32 583.74 549.11 585.58 554.48 590.78 L 569.14 604.98 L 595.26 586 L 586.32 567.76 C 583.03 561.03 583.71 553.01 588.16 546.98 C 588.39 546.67 588.61 546.37 588.83 546.06 C 593.2 540.02 600.58 536.93 607.96 537.98 L 628.2 540.86 L 638.18 510.16 L 620.23 500.65 C 613.55 497.11 609.46 490.14 609.5 482.58" transform="translate(-500 -477.29)"/>
          </g>
          <g transform="translate(641.128 449.607)scale(1.65697)">
            <path transform="translate(-500 -472.844)" d="M 557.263 587.908 C 553.66 584.418 549.163 582.17 544.321 581.388 C 544.778 581.298 545.228 581.196 545.671 581.081 C 553.339 579.076 555.33 572.933 556.783 568.449 C 557.659 565.745 558.456 563.453 560.044 561.936 C 560.489 561.511 561.551 560.941 562.204 560.352 C 565.188 557.658 566.346 554.322 570.182 547.382 C 570.725 546.4 571.546 546.607 570.774 545.944 L 571.786 544.219 L 572.316 540.97 C 572.793 538.271 572.668 534.491 572.63 531.917 C 577.093 529.965 581.237 526.019 583.397 523.162 L 583.873 520.974 L 583.541 518.968 C 583.315 518.594 583.314 518.178 582.602 517.051 C 580.106 513.098 574.576 501.078 573.502 497.959 C 572.222 494.223 573.018 492.586 574.762 489 C 575.464 487.555 576.26 485.917 576.986 483.936 C 579.646 476.656 580.881 469.156 580.658 461.642 C 579.515 423.568 543.622 397.179 509.581 393.661 C 506.657 393.361 503.719 393.21 500.78 393.211 C 454.065 393.211 416.06 431.215 416.06 477.931 C 416.06 493.959 420.56 509.563 429.076 523.069 C 429.267 523.455 429.504 523.909 429.806 524.445 C 435.695 535.163 440.503 552.487 440.147 558.598 C 439.165 575.534 433.801 587.804 424.205 595.072 L 424.113 595.142 L 409.5 584.52 L 417.011 569.178 C 420.983 561.089 420.158 551.568 414.855 544.334 L 414.744 544.183 C 414.567 543.945 414.393 543.705 414.221 543.464 C 409.721 537.179 402.409 533.435 394.651 533.435 C 393.501 533.435 392.352 533.517 391.213 533.679 L 374.443 536.066 L 366.543 511.751 L 381.63 503.764 C 389.575 499.554 394.501 491.274 394.489 482.154 L 394.489 481.479 C 394.537 472.382 389.61 464.093 381.632 459.865 L 366.662 451.947 L 374.564 427.634 L 391.464 430.039 C 392.594 430.2 393.744 430.282 394.884 430.282 C 402.612 430.282 409.909 426.565 414.402 420.341 L 414.646 420.009 C 414.767 419.842 414.889 419.677 415.013 419.514 C 420.397 412.207 421.245 402.659 417.273 394.533 L 409.812 379.319 L 430.5 364.291 L 442.746 376.152 C 447.286 380.558 453.259 382.984 459.561 382.984 C 462.1 382.984 464.611 382.582 467.026 381.79 C 467.381 381.672 467.737 381.556 468.094 381.444 C 476.669 378.726 482.954 371.499 484.5 362.583 L 487.41 345.919 L 512.977 345.919 L 515.909 362.717 C 517.455 371.597 523.707 378.812 532.226 381.547 C 532.54 381.642 532.774 381.722 533.004 381.8 L 533.282 381.893 C 535.722 382.704 538.277 383.117 540.848 383.117 C 547.155 383.117 553.128 380.692 557.664 376.29 L 569.818 364.512 L 590.498 379.539 L 582.986 394.879 C 579.02 402.972 579.846 412.492 585.142 419.723 C 585.3 419.947 585.5 420.218 585.695 420.483 L 585.815 420.647 C 590.279 426.884 597.6 430.631 605.367 430.63 C 606.505 430.63 607.653 430.55 608.78 430.39 L 625.554 427.995 L 633.456 452.309 L 618.366 460.305 C 610.419 464.505 605.487 472.783 605.499 481.905 L 605.499 482.579 C 605.451 491.669 610.378 499.956 618.356 504.184 L 633.336 512.121 L 625.434 536.426 L 608.523 534.019 C 607.391 533.857 606.249 533.776 605.105 533.777 C 597.386 533.777 590.09 537.492 585.588 543.714 C 585.362 544.033 585.161 544.307 584.95 544.59 C 579.6 551.841 578.751 561.387 582.725 569.516 L 590.187 584.741 L 569.507 599.767 L 557.263 587.908 Z M 516.768 596.886 C 515.858 590.916 512.887 583.299 513.717 576.832 L 513.993 574.778 C 517.552 576.264 524.026 578.717 527.726 579.8 C 529.964 580.456 532.71 581.177 535.676 581.555 C 534.767 581.741 533.869 581.98 532.981 582.271 L 531.888 582.624 C 524.868 584.846 519.369 590.124 516.768 596.886"/>
          </g>
        </g>
      </g>
    </svg>
  </g><path xmlns="http://www.w3.org/2000/svg" xmlns:bx="https://boxy-svg.com" d="M 253.159 248.319 m -85.245 0 a 85.245 85.245 0 1 0 170.49 0 a 85.245 85.245 0 1 0 -170.49 0 Z M 253.159 248.319 m -52.586 0 a 52.586 52.586 0 0 1 105.172 0 a 52.586 52.586 0 0 1 -105.172 0 Z" bx:shape="ring 253.159 248.319 52.586 52.586 85.245 85.245 1@8d99dbbf"/></g></svg></g><g transform="translate(474.6121109607577 164) scale(1)"><g transform="translate(0 140)" fill="currentColor"><path d="M11 -23V-117L34 -140H106L129 -117V-23L106 0H34ZM91.6 -23.2 101.8 -33.4V-106.6L91.6 -116.8H48.4L38.2 -106.6V-33.4L48.4 -23.2Z"/><g transform="translate(12 0)"><path d="M165 -140H190.2L231.8 -49.6H232.2L274 -140H299.2V0H273V-85.2H272.6L240.4 -19.6H223.6L191.6 -85.2H191.2V0H165Z"/></g><g transform="translate(24 0)"><path d="M337.2 -140H361.6L424 -45H424.4V-140H450.6V0H426.2L363.8 -94.8H363.4V0H337.2Z"/></g><g transform="translate(36 0)"><path d="M489.6 -140H516.8V0H489.6Z"/></g><g transform="translate(48 0)"><path d="M555.8 -140H655V-117H583V-78.2H645.4V-55.2H583V0H555.8Z"/></g><g transform="translate(60 0)"><path d="M681 -23V-117L704 -140H776L799 -117V-23L776 0H704ZM761.6 -23.2 771.8 -33.4V-106.6L761.6 -116.8H718.4L708.2 -106.6V-33.4L718.4 -23.2Z"/></g><g transform="translate(72 0)"><path d="M945 -46.4V0H917.8V-40.2L905.8 -53.6H862.2V0H835V-140H922.8L944.2 -118.4V-76L930.6 -62.2ZM862.2 -76H910.4L917.4 -83V-110.2L910.4 -117.2H862.2Z"/></g><g transform="translate(84 0)"><path d="M980 -23V-117L1003 -140H1072.6L1095.2 -117.4V-96H1068V-107.4L1058.6 -116.8H1017.4L1007.2 -106.6V-33.4L1017.4 -23.2H1059L1068.8 -33V-54.8H1038.8V-78H1095.2V-23L1072.2 0H1003Z"/></g><g transform="translate(96 0)"><path d="M1129.2 -140H1230.4V-117H1156.4V-81.6H1224.6V-59H1156.4V-23H1230.4V0H1129.2Z"/></g></g></g></svg>